<svg xmlns="http://www.w3.org/2000/svg" width="335.01" height="60.699" viewBox="0 0 335.01 60.699">
  <g id="Group_14435" data-name="Group 14435" transform="translate(-19948 -6060)">
    <rect id="Rectangle_5317" data-name="Rectangle 5317" width="335.01" height="60.69" transform="translate(19948 6060)" fill="none"/>
    <g id="Group_14433" data-name="Group 14433" transform="translate(19936.639 5850.359)">
      <path id="Path_11589" data-name="Path 11589" d="M24.5,249.824l-.053.017c-.78-1.029-1.579-2.043-2.338-3.087A27.068,27.068,0,0,1,18.87,241.2c-.031-.074-.065-.146-.094-.221-2.173-5.461-2.158-10.883.724-16.071a17.622,17.622,0,0,1,12.16-8.9,18.118,18.118,0,0,1,8.2.122,18.308,18.308,0,0,1,6.319,2.933,17.732,17.732,0,0,1,6.88,18.712,23.99,23.99,0,0,1-6.49,10.837c-5.167,5.2-10.428,10.3-15.648,15.451-.194.19-.368.4-.576.627l3.9,4.5c.19-.177.319-.289.439-.409,5.14-5.1,10.26-10.224,15.43-15.3a39.79,39.79,0,0,0,5.042-6.212,24.359,24.359,0,0,0,4.268-11.981,22.907,22.907,0,0,0-4.86-16.354,23.441,23.441,0,0,0-15.787-9.05,24.586,24.586,0,0,0-7.546.105,22.412,22.412,0,0,0-7.267,2.5c-7.722,4.33-12,10.9-12.562,19.742-.436,6.817,2.16,12.651,6.335,17.87l2.737,3.277,6.438,7.71,3.636-4.2Z" transform="translate(0 0)" fill="#892a8d"/>
      <path id="Path_11590" data-name="Path 11590" d="M46.707,257.927l-2.4,2.412,2.682,2.933.141.132L54,270.821h0c2.18,2.22-1.208,5.965-3.706,3.491l0,0-2.542-2.7-2.651,2.5,2.693,2.859.007-.007a6.19,6.19,0,0,0,10.158-6.546,6.476,6.476,0,0,0-1.3-2.094Z" transform="translate(-18.648 -27.325)" fill="#892a8d"/>
      <path id="Path_11591" data-name="Path 11591" d="M62.8,241.317l-9.043-9.243a5.445,5.445,0,0,0-3.442-1.427h-.071c-.055,0-.11,0-.165,0s-.11,0-.166,0h-.07a5.446,5.446,0,0,0-3.443,1.427l-9.043,9.243a.424.424,0,0,0,0,.589l2.074,2.18a.425.425,0,0,0,.611,0l7.729-7.883h0l0,.005.014-.012a3.4,3.4,0,0,1,1.933-.875c.087,0,.164-.01.243-.011h.24c.079,0,.156.007.243.011a3.4,3.4,0,0,1,1.932.875l.014.012v-.005h0l7.729,7.883a.424.424,0,0,0,.61,0l2.074-2.18a.423.423,0,0,0,0-.589" transform="translate(-14.644 -11.882)" fill="#f27e2b"/>
      <path id="Path_11592" data-name="Path 11592" d="M65.035,251.842a1.375,1.375,0,1,0,1.375,1.375,1.377,1.377,0,0,0-1.375-1.375" transform="translate(-29.6 -23.881)" fill="#892a8d"/>
      <path id="Path_11593" data-name="Path 11593" d="M61.252,244.872a5.269,5.269,0,1,0,3.808,6.4,5.268,5.268,0,0,0-3.808-6.4M62,250.711l-2.042,2.618-2.042-2.618a2.549,2.549,0,0,1,.53-3.586,2.5,2.5,0,0,1,1.512-.5,2.769,2.769,0,0,1,.809.126,2.484,2.484,0,0,1,1.618,1.618A2.583,2.583,0,0,1,62,250.711" transform="translate(-24.52 -19.843)" fill="#892a8d"/>
      <path id="Path_11594" data-name="Path 11594" d="M370.87,297.017a79.6,79.6,0,0,1,6.38,6.847,4.169,4.169,0,0,0,3.337,1.763h.294v2.213h-.346c-2.109,0-3.25-1.176-4.478-2.8-.571-.743-1.107-1.452-1.522-1.919h-.087a5.1,5.1,0,0,1-1.366,2.939c-1.573,1.158-4.512,1.971-7.746,1.971-4.374,0-7.02-1.66-7.02-5.568a7.879,7.879,0,0,1,.605-3.077l.692.224a6.306,6.306,0,0,0-.26,1.815c0,2.767,2.213,4.305,6.363,4.305,2.507,0,6-.605,7.521-2.109a2.249,2.249,0,0,0-.294-1.02,22.157,22.157,0,0,0-4.27-5.256c-.467-.484-.847-.882-1.089-1.176a5.513,5.513,0,0,1-.121-.951,3.035,3.035,0,0,1,.467-1.487,2.186,2.186,0,0,1,.622-.64c1.8-1.158,5.879-2.559,10.633-4.046l.069.1a14,14,0,0,1-1.332,2.127c-1.037.259-2.524.761-3.959,1.279a51.411,51.411,0,0,0-5.239,2.2v.052" transform="translate(-196.373 -44.938)" fill="#636464"/>
      <path id="Path_11595" data-name="Path 11595" d="M409.021,310.993a11.171,11.171,0,0,0,3.406-.329c.605-.224.986-.467.986-.76,0-.813-.83-2.507-1.729-4.271a13.687,13.687,0,0,1,1.3-1.954h.087a12.2,12.2,0,0,1,1.729,5.274,5.182,5.182,0,0,1-1.21,3.216c-.778.778-2.006,1.038-4.651,1.038h-.207a1.111,1.111,0,0,1-1.21-1.158,1.076,1.076,0,0,1,1.21-1.055Zm1.3-8.8c-.709-.674-1.332-1.228-2.023-1.8a15.7,15.7,0,0,1,1.366-1.643,16.291,16.291,0,0,1,1.971,1.85,9.2,9.2,0,0,1-1.314,1.591m3.337-.225c-.709-.674-1.331-1.227-2.023-1.8A15.6,15.6,0,0,1,413,298.527a16.284,16.284,0,0,1,1.971,1.85,9.17,9.17,0,0,1-1.314,1.591" transform="translate(-224.219 -50.304)" fill="#636464"/>
      <path id="Path_11596" data-name="Path 11596" d="M461.1,311.181l.208.2.211-.2a9.5,9.5,0,0,0,1.356-1.639c.517.441,1.014.89,1.562,1.411l.209.2.21-.2a9.432,9.432,0,0,0,1.356-1.64l.142-.2-.168-.181a16.358,16.358,0,0,0-2.007-1.883l-.217-.17-.191.2a15.777,15.777,0,0,0-1.355,1.622,14.864,14.864,0,0,0-1.574-1.426l-.217-.17-.191.2a15.714,15.714,0,0,0-1.393,1.675l-.168.232.221.183c.685.565,1.3,1.115,2.007,1.784" transform="translate(-253.286 -55.034)" fill="#636464"/>
      <path id="Path_11597" data-name="Path 11597" d="M463.254,302.989l.208.2.211-.2a9.5,9.5,0,0,0,1.356-1.639l.142-.2-.168-.181A16.358,16.358,0,0,0,463,299.086l-.217-.17-.191.2a15.688,15.688,0,0,0-1.393,1.675l-.168.232.221.183c.686.566,1.306,1.116,2.007,1.784" transform="translate(-254.505 -50.525)" fill="#636464"/>
      <path id="Path_11598" data-name="Path 11598" d="M481.972,300.519a2.341,2.341,0,0,0-.389.361l-.538.932.284.425.236-.108a17.428,17.428,0,0,1,4.418-1.273l.128-.02.074-.106a8.7,8.7,0,0,0,.7-1.219l.031-.063-.007-.445-.323.019c-.571.034-1.163.069-1.74.069-1.046,0-2.127-.289-2.166-.774a1.324,1.324,0,0,1,.9-.326,1.911,1.911,0,0,1,.456.042c.012,0,.125.046.36.516l.084.17h.366l.092-.109a2.082,2.082,0,0,0,.625-1.322,1.243,1.243,0,0,0-1.4-1.153,3.593,3.593,0,0,0-2.3,1.068,2.629,2.629,0,0,0-.911,1.746,1.746,1.746,0,0,0,1.011,1.572" transform="translate(-265.788 -48.95)" fill="#636464"/>
      <path id="Path_11599" data-name="Path 11599" d="M458.071,309.694h-.41l-.092.113a14.034,14.034,0,0,0-1.327,2l-.079.142.074.145a14.676,14.676,0,0,1,1.7,4.132s-.009.186-.784.474a9.639,9.639,0,0,1-2.907.309c-1.721-.017-2.6-.517-2.6-1.49a10.267,10.267,0,0,1,.405-2.292l.039-.148-.33-.413-1.6.943-.324,1.335c-.342,1.391-.941,2.067-1.83,2.067-.4,0-.888-.13-.888-.75a8.647,8.647,0,0,1,.5-2.431l.049-.156-.32-.4-1.511.689-.492,1.4a2.445,2.445,0,0,1-.887,1.214l-.013.009a1.969,1.969,0,0,1-1.128.422c-.437,0-.6-.132-.821-.667a24.861,24.861,0,0,0-1.432-3.334l-.085-.167h-.419l-.091.137c-.472.707-.812,1.24-1.156,1.874l-.087.16.1.153a9.78,9.78,0,0,1,1.731,4.415c0,1.466-2.342,3.359-4.83,3.359a3.623,3.623,0,0,1-3.913-3.879,7.679,7.679,0,0,1,.8-3.108l.118-.264-1.108-.57-.151.232a9.43,9.43,0,0,0-1.415,5.008c0,3.463,2.045,5.613,5.337,5.613a6.767,6.767,0,0,0,6.091-3.56,12.311,12.311,0,0,0,.636-2.578h.085a3.4,3.4,0,0,0,2.711-1.184,1.963,1.963,0,0,0,1.992,1.184,4.177,4.177,0,0,0,3.03-1.476c.44.677,1.37,1.359,3.315,1.463v.013h1.258v-.026c1.913-.087,2.916-.407,3.609-1.1l.028-.032a5.512,5.512,0,0,0,1.272-3.4,12.873,12.873,0,0,0-1.769-5.424Z" transform="translate(-237.264 -56.625)" fill="#636464"/>
      <path id="Path_11600" data-name="Path 11600" d="M513.428,298.945l-.088-.154h-.41l-.092.113a13.967,13.967,0,0,0-1.326,2l-.08.142.074.145c.675,1.325,1.7,3.326,1.7,4.132,0,0-.009.185-.784.473a10.933,10.933,0,0,1-3.3.31h-.536a3.218,3.218,0,0,1-1-.172,1.5,1.5,0,0,1-1.095-1.562v-.986c0-4.3,0-8.743-.278-12.54l-.012-.163-.442-.252-.162.128a15.791,15.791,0,0,0-1.661,1.641l-.089.1.01.131c.222,3.137.449,6.823.449,10.37,0,2.5,0,3.877,1.162,5.058a4.1,4.1,0,0,0,3.172,1.075h.5c2.693-.007,3.947-.3,4.769-1.127l.028-.032a5.513,5.513,0,0,0,1.272-3.4,12.873,12.873,0,0,0-1.769-5.425" transform="translate(-278.737 -45.721)" fill="#636464"/>
      <path id="Path_11601" data-name="Path 11601" d="M518.737,337.678h-.553c-.092,0-.231-.216-.231-.541a3.5,3.5,0,0,1,1.033-1.962l.185-.215-.842-.842-.216.2a5.4,5.4,0,0,0-1.93,3.957c0,1.455.755,2.432,1.879,2.432a1.78,1.78,0,0,0,1.845-1.792,1.154,1.154,0,0,0-1.17-1.24" transform="translate(-285.723 -70.448)" fill="#636464"/>
      <path id="Path_11602" data-name="Path 11602" d="M538.744,313.525l-1.3-2.469-.458-.076-.107.176c-.4.658-.794,1.349-1.237,2.177l-.086.16.1.152a27.235,27.235,0,0,1,2.045,3.75l.045.123a2.254,2.254,0,0,1,.175.679,1.553,1.553,0,0,1-.164.636c-1.152,2.585-3.588,4.472-5.79,4.487a5.784,5.784,0,0,1-1.825-.3l-.291-.094-.364,1.127.232.118a10.392,10.392,0,0,0,4.582,1.365,4.394,4.394,0,0,0,3.074-1.668l.015-.016a8.171,8.171,0,0,0,2.249-5v-1.9a6.825,6.825,0,0,0-.9-3.427" transform="translate(-293.256 -57.353)" fill="#636464"/>
      <path id="Path_11603" data-name="Path 11603" d="M578.329,329.147h-3.994c-2.507,0-5.446-.225-6.829-.225a6.8,6.8,0,0,0-3.856,1.038c-.9.622-1.47,1.193-1.47,1.677,0,1.315,2.524,1.92,6.173,1.92,1.625,0,3.25-.052,4.875-.1,1.574-.052,3.13-.086,4.7-.086l.052.155a12.387,12.387,0,0,1-1.625,1.884c-1.937,0-3.752.052-5.463.1-1.3.034-2.524.086-3.683.086-3.13,0-6.432-.224-6.432-2.611a5.34,5.34,0,0,1,1.193-2.9c1.8-2.317,3.89-3.389,5.913-3.389,1.556,0,4.392.242,6.674.242h3.769Z" transform="translate(-310.964 -66.246)" fill="#636464"/>
      <path id="Path_11604" data-name="Path 11604" d="M613.573,315.231a20.024,20.024,0,0,1,.277,3.077,5.853,5.853,0,0,1-.623,2.369,3.318,3.318,0,0,1-2.559,1.9,2.919,2.919,0,0,1-2.161-1.435h-.138a4.043,4.043,0,0,1-3.026,1.486,1.484,1.484,0,0,1-1.66-1.469h-.069a4.629,4.629,0,0,1-3.683,1.469h-.293a1.11,1.11,0,0,1-1.21-1.158,1.076,1.076,0,0,1,1.21-1.055h.587a4.1,4.1,0,0,0,3.648-1.608l.951-1.366,1.331-.467.069.086a6.491,6.491,0,0,0-1.176,2.49.826.826,0,0,0,.9.865,2.763,2.763,0,0,0,1.539-.5c.6-.449.691-.95,1.227-2.749l1.037-.605.1.069a7.609,7.609,0,0,0-.225,1.694,1.865,1.865,0,0,0,1.8,1.988.812.812,0,0,0,.916-.778,15.718,15.718,0,0,0-.432-2.8,13.183,13.183,0,0,1,1.556-1.556Z" transform="translate(-332.272 -59.729)" fill="#636464"/>
      <path id="Path_11605" data-name="Path 11605" d="M671.4,310.034l.208.2.211-.2a9.51,9.51,0,0,0,1.356-1.639c.516.44,1.013.89,1.562,1.411l.208.2.211-.2a9.472,9.472,0,0,0,1.356-1.639l.141-.2-.168-.181a16.387,16.387,0,0,0-2.007-1.883l-.217-.17-.191.2a15.682,15.682,0,0,0-1.355,1.622,14.958,14.958,0,0,0-1.574-1.427l-.217-.17-.191.2a15.687,15.687,0,0,0-1.393,1.675l-.168.232.221.182c.685.566,1.3,1.115,2.007,1.784" transform="translate(-372.312 -54.385)" fill="#636464"/>
      <path id="Path_11606" data-name="Path 11606" d="M673.551,301.841l.207.2.211-.2a9.511,9.511,0,0,0,1.357-1.639l.141-.2-.168-.181a16.389,16.389,0,0,0-2.007-1.883l-.217-.17-.191.2a15.675,15.675,0,0,0-1.394,1.675l-.168.233.221.182c.686.565,1.3,1.115,2.007,1.784" transform="translate(-373.53 -49.875)" fill="#636464"/>
      <path id="Path_11607" data-name="Path 11607" d="M700.08,337.858h-.553c-.091,0-.23-.216-.23-.541a3.5,3.5,0,0,1,1.033-1.962l.185-.215-.842-.842-.216.2a5.4,5.4,0,0,0-1.929,3.958c0,1.454.755,2.432,1.879,2.432a1.78,1.78,0,0,0,1.844-1.792,1.154,1.154,0,0,0-1.171-1.24" transform="translate(-388.362 -70.55)" fill="#636464"/>
      <path id="Path_11608" data-name="Path 11608" d="M668.5,309.694h-.41l-.092.113a14.075,14.075,0,0,0-1.326,2l-.08.142.074.145c.675,1.325,1.7,3.326,1.7,4.132,0,0-.009.186-.784.474a9.934,9.934,0,0,1-3,.309c-1.747-.01-2.635-.511-2.635-1.491a10.264,10.264,0,0,1,.405-2.292l.039-.148-.331-.413-1.6.943-.324,1.335c-.342,1.391-.94,2.067-1.83,2.067-.4,0-.887-.13-.887-.75a8.672,8.672,0,0,1,.5-2.431l.049-.156-.319-.4-1.511.689-.493,1.4a2.44,2.44,0,0,1-.887,1.214l-.013.009a1.971,1.971,0,0,1-1.128.422c-.437,0-.6-.132-.821-.667a24.87,24.87,0,0,0-1.432-3.334l-.086-.167h-.419l-.091.137c-.472.707-.812,1.24-1.156,1.874l-.087.16.1.153a9.784,9.784,0,0,1,1.731,4.415c0,1.466-2.342,3.359-4.829,3.359a3.623,3.623,0,0,1-3.913-3.879,7.687,7.687,0,0,1,.8-3.108l.118-.264-1.108-.57-.151.232a9.43,9.43,0,0,0-1.415,5.008c0,3.463,2.045,5.613,5.337,5.613a6.769,6.769,0,0,0,6.092-3.56,12.33,12.33,0,0,0,.635-2.578h.085a3.4,3.4,0,0,0,2.712-1.184,1.962,1.962,0,0,0,1.991,1.184,4.177,4.177,0,0,0,3.03-1.476,3.555,3.555,0,0,0,2.744,1.412,1.835,1.835,0,0,0,.492.064h1.336v-.02c2-.079,3.029-.4,3.739-1.107l.028-.032a5.512,5.512,0,0,0,1.272-3.4,12.873,12.873,0,0,0-1.769-5.424Z" transform="translate(-356.289 -56.625)" fill="#636464"/>
      <path id="Path_11609" data-name="Path 11609" d="M713.84,309.393l-.034.214.626.338.161-.178a4.78,4.78,0,0,0,1.6-2.963,28.377,28.377,0,0,0,.122-2.879c0-5.13-.143-9.007-.451-12.2l-.019-.2-.513-.171-.132.12a15.933,15.933,0,0,0-1.731,1.872l-.074.1.011.12c.146,1.576.622,7.008.622,10.726v1.695a22.713,22.713,0,0,1-.187,3.41" transform="translate(-397.342 -46.245)" fill="#636464"/>
      <path id="Path_11610" data-name="Path 11610" d="M757.122,303.264c.565.477,1.1.928,1.641,1.442l.2.189.209-.178a7.252,7.252,0,0,0,1.5-1.768l.122-.2-.161-.17a16,16,0,0,0-2.116-1.886l-.227-.166-.184.212c-.5.574-1,1.223-1.415,1.781l-.172.23.219.186.387.328" transform="translate(-421.749 -51.436)" fill="#636464"/>
      <path id="Path_11611" data-name="Path 11611" d="M746.1,313.566l-1.486.018a8.3,8.3,0,0,1-2.847-.531,17.173,17.173,0,0,0-5.785-1.527c-2.28,0-3.91,1.365-4.057,3.4l0,.066.944,2.544h.605l.616-1.848-.189-.789a2.552,2.552,0,0,1,1.86-.648,14.9,14.9,0,0,1,4.777.995c-3.322,1.936-5.991,2.8-8.6,2.8H729.61c-.53-3.414-2.147-5.775-3.982-5.775a3.635,3.635,0,0,0-2.912,1.789,4.964,4.964,0,0,0-.938,2.96c0,2.555,1.894,3.85,5.631,3.85h.425a6.187,6.187,0,0,1-1.422,1.9,6.429,6.429,0,0,1-4.588,2.294,4.93,4.93,0,0,1-2.4-.586l-.274-.148-.566,1.1.242.148a10.216,10.216,0,0,0,5.14,1.791,6.431,6.431,0,0,0,4.421-3.092,8.554,8.554,0,0,0,1.334-3.408h2.059a13.717,13.717,0,0,0,7.654-2.366l2.884-1.883a4.985,4.985,0,0,1,2.82-.592l.193,0,1.125-2.23Zm-18.318,4.479a10.344,10.344,0,0,1-2.645-.247c-1.1-.321-1.662-.8-1.662-1.417,0-.509.831-1.216,1.648-1.216a2.22,2.22,0,0,1,1.608.87,4.878,4.878,0,0,1,1.051,2.011" transform="translate(-400.281 -57.662)" fill="#636464"/>
      <g id="Group_14432" data-name="Group 14432" transform="translate(69.209 209.694)">
        <path id="Path_11612" data-name="Path 11612" d="M159.176,213.726a3.932,3.932,0,1,1-1.151-2.819,3.835,3.835,0,0,1,1.151,2.819" transform="translate(-148.375 -209.755)" fill="#5baa46"/>
        <path id="Path_11613" data-name="Path 11613" d="M501.659,213.726a3.932,3.932,0,1,1-1.151-2.819,3.835,3.835,0,0,1,1.151,2.819" transform="translate(-342.216 -209.755)" fill="#5baa46"/>
        <path id="Path_11614" data-name="Path 11614" d="M148.221,253.055a1.158,1.158,0,0,1-1.31,1.31h-2.263v5.48H148.1a7.229,7.229,0,0,0,3.038-.576,5.876,5.876,0,0,0,3.216-3.514,6.893,6.893,0,0,0,.377-2.224V232.169h-6.512Z" transform="translate(-144.647 -222.441)" fill="#892a8d"/>
        <path id="Path_11615" data-name="Path 11615" d="M191.73,231.605q-2.4-1.907-7.008-1.906a19.032,19.032,0,0,0-2.423.139,9.468,9.468,0,0,0-2,.476,7.811,7.811,0,0,0-1.727.874,11.077,11.077,0,0,0-1.628,1.37l4.05,4.05a5.484,5.484,0,0,1,1.469-1.112,4.718,4.718,0,0,1,1.946-.317,4.005,4.005,0,0,1,2.462.6,2.491,2.491,0,0,1,.754,2.065v.556h-4.328a9.309,9.309,0,0,0-3.276.516,6.6,6.6,0,0,0-2.263,1.37,5.212,5.212,0,0,0-1.31,1.985,6.664,6.664,0,0,0-.417,2.323,8.005,8.005,0,0,0,.477,2.8,6.012,6.012,0,0,0,1.389,2.2,6.243,6.243,0,0,0,2.2,1.41,8.091,8.091,0,0,0,2.919.5,6.61,6.61,0,0,0,2.739-.477,7.121,7.121,0,0,0,2.025-1.469V251.3h6.353V237.442q0-3.931-2.4-5.837m-4.11,11.674a2.883,2.883,0,0,1-.635,2.144,2.613,2.613,0,0,1-1.092.655,6.214,6.214,0,0,1-1.49.139,2.186,2.186,0,0,1-1.608-.536,1.716,1.716,0,0,1-.536-1.251,1.546,1.546,0,0,1,.556-1.23,2.241,2.241,0,0,1,1.509-.477h3.3Z" transform="translate(-162.407 -221.043)" fill="#892a8d"/>
        <path id="Path_11616" data-name="Path 11616" d="M238.321,231.685a7.392,7.392,0,0,0-2.045-1.489,6.415,6.415,0,0,0-2.72-.5,6.815,6.815,0,0,0-5.043,1.906,5.95,5.95,0,0,0-1.131,1.549,6.713,6.713,0,0,0-.6,1.826,15.21,15.21,0,0,0-.218,2.184q-.04,1.191-.04,2.66t.04,2.661a15.184,15.184,0,0,0,.218,2.184,6.7,6.7,0,0,0,.6,1.826,5.942,5.942,0,0,0,1.131,1.549,6.762,6.762,0,0,0,5,1.906,7,7,0,0,0,2.6-.437,5.957,5.957,0,0,0,2.005-1.35v1.549a4.12,4.12,0,0,1-.159,1.092,2.936,2.936,0,0,1-.536,1.052,2.879,2.879,0,0,1-1.052.794,4.013,4.013,0,0,1-1.707.318,6.313,6.313,0,0,1-2.005-.3,4.21,4.21,0,0,1-1.648-1.052l-4.05,4.05a8.416,8.416,0,0,0,3.574,2.2,15.69,15.69,0,0,0,4.447.576,11.469,11.469,0,0,0,3.971-.655,9,9,0,0,0,3.037-1.807,8.1,8.1,0,0,0,1.946-2.739,8.634,8.634,0,0,0,.695-3.494V229.937h-6.314Zm-.258,9.728a4.22,4.22,0,0,1-.317,1.35,2.256,2.256,0,0,1-.755.953,2.92,2.92,0,0,1-2.8,0,2.187,2.187,0,0,1-.774-.953,4.2,4.2,0,0,1-.318-1.35q-.059-.754-.059-1.588t.059-1.588a4.2,4.2,0,0,1,.318-1.35,2.187,2.187,0,0,1,.774-.953,2.92,2.92,0,0,1,2.8,0,2.256,2.256,0,0,1,.755.953,4.225,4.225,0,0,1,.317,1.35q.06.755.06,1.588t-.06,1.588" transform="translate(-190.991 -221.043)" fill="#892a8d"/>
        <path id="Path_11617" data-name="Path 11617" d="M292.091,231.605q-2.4-1.907-7.008-1.906a19.029,19.029,0,0,0-2.422.139,9.468,9.468,0,0,0-2,.476,7.825,7.825,0,0,0-1.727.874,11.124,11.124,0,0,0-1.628,1.37l4.05,4.05a5.485,5.485,0,0,1,1.469-1.112,4.719,4.719,0,0,1,1.946-.317,4.005,4.005,0,0,1,2.462.6,2.491,2.491,0,0,1,.754,2.065v.556h-4.328a9.309,9.309,0,0,0-3.276.516,6.6,6.6,0,0,0-2.263,1.37,5.212,5.212,0,0,0-1.31,1.985,6.664,6.664,0,0,0-.417,2.323,8.016,8.016,0,0,0,.477,2.8,6.019,6.019,0,0,0,1.39,2.2,6.243,6.243,0,0,0,2.2,1.41,8.091,8.091,0,0,0,2.919.5,6.61,6.61,0,0,0,2.74-.477,7.132,7.132,0,0,0,2.025-1.469V251.3h6.353V237.442q0-3.931-2.4-5.837m-4.11,11.674a2.883,2.883,0,0,1-.635,2.144,2.615,2.615,0,0,1-1.092.655,6.216,6.216,0,0,1-1.49.139,2.185,2.185,0,0,1-1.608-.536,1.716,1.716,0,0,1-.536-1.251,1.546,1.546,0,0,1,.556-1.23,2.241,2.241,0,0,1,1.509-.477h3.3Z" transform="translate(-219.21 -221.043)" fill="#892a8d"/>
        <path id="Path_11618" data-name="Path 11618" d="M346.238,225.706a7.045,7.045,0,0,0-1.271-2.462,5.962,5.962,0,0,0-2.125-1.648,7.061,7.061,0,0,0-3.018-.6,6.54,6.54,0,0,0-4.685,1.985V214.33h-6.512V242.6h6.512V229.657a3.069,3.069,0,0,1,.278-1.41,2.5,2.5,0,0,1,.655-.834,2.263,2.263,0,0,1,.814-.417,2.455,2.455,0,0,1,1.51,0,2.277,2.277,0,0,1,.814.417,2.518,2.518,0,0,1,.655.834,3.074,3.074,0,0,1,.278,1.41V242.6h6.512V228.744a10.689,10.689,0,0,0-.417-3.038" transform="translate(-248.778 -212.344)" fill="#892a8d"/>
        <path id="Path_11619" data-name="Path 11619" d="M392.573,236.27a7.273,7.273,0,0,0-2.388-1.656,8.97,8.97,0,0,0-3.466-.655,8.68,8.68,0,0,0-3.427.655,7.266,7.266,0,0,0-2.388,1.656,7.518,7.518,0,0,0-1.849,3.313,20.72,20.72,0,0,0,0,8.7,7.791,7.791,0,0,0,1.849,3.351,7.247,7.247,0,0,0,2.388,1.656,8.68,8.68,0,0,0,3.427.655,8.97,8.97,0,0,0,3.466-.655,7.254,7.254,0,0,0,2.388-1.656,7.8,7.8,0,0,0,1.849-3.351,20.722,20.722,0,0,0,0-8.7,7.526,7.526,0,0,0-1.849-3.313m-1.848,10.669a4.49,4.49,0,0,1-1.117,2.35,3.92,3.92,0,0,1-2.889,1.155,3.874,3.874,0,0,1-2.85-1.155,4.483,4.483,0,0,1-1.117-2.35,15.082,15.082,0,0,1-.231-3,15.711,15.711,0,0,1,.231-3.043,4.446,4.446,0,0,1,1.117-2.311,3.861,3.861,0,0,1,2.85-1.117,3.911,3.911,0,0,1,2.889,1.117,4.453,4.453,0,0,1,1.117,2.311,15.779,15.779,0,0,1,.231,3.043,15.147,15.147,0,0,1-.231,3" transform="translate(-277.057 -223.454)" fill="#892a8d"/>
        <path id="Path_11620" data-name="Path 11620" d="M433.2,233.96a6.788,6.788,0,0,0-5.2,2.2v-1.964h-3.852v19.527h3.928v-11.9q0-4.352,4.045-4.352,3.928,0,3.928,4.352v11.9h3.929V241.239a7.368,7.368,0,0,0-1.964-5.508,6.672,6.672,0,0,0-4.815-1.772" transform="translate(-302.839 -223.455)" fill="#892a8d"/>
        <path id="Path_11621" data-name="Path 11621" d="M474.4,238.1V216.3h-3.929V238.33a5.46,5.46,0,0,0,1.271,3.775,5.15,5.15,0,0,0,4.082,1.618h2.427v-3.351h-1.733q-2.118,0-2.118-2.272" transform="translate(-329.062 -213.459)" fill="#892a8d"/>
        <rect id="Rectangle_5318" data-name="Rectangle 5318" width="3.929" height="19.527" transform="translate(153.507 10.737)" fill="#892a8d"/>
        <path id="Path_11622" data-name="Path 11622" d="M528.7,233.96a6.788,6.788,0,0,0-5.2,2.2v-1.964h-3.851v19.527h3.928v-11.9q0-4.352,4.045-4.352,3.929,0,3.929,4.352v11.9h3.928V241.239a7.368,7.368,0,0,0-1.964-5.508,6.672,6.672,0,0,0-4.814-1.772" transform="translate(-356.895 -223.455)" fill="#892a8d"/>
        <path id="Path_11623" data-name="Path 11623" d="M582.618,243.357a10.132,10.132,0,0,0-2.156-6.779,7.7,7.7,0,0,0-6.124-2.619,7.425,7.425,0,0,0-6.008,2.619,10.963,10.963,0,0,0-2.272,7.357q0,5.238,2.542,7.78a8.431,8.431,0,0,0,6.239,2.234,10.288,10.288,0,0,0,4.2-.77,10.785,10.785,0,0,0,3.121-2.272l-2.5-2.349a6.479,6.479,0,0,1-4.737,2q-4.969,0-4.969-5.469h12.671Zm-12.671-1a7,7,0,0,1,.5-2.657,4.272,4.272,0,0,1,7.742,0,6.9,6.9,0,0,1,.539,2.657Z" transform="translate(-383.16 -223.454)" fill="#892a8d"/>
        <path id="Path_11624" data-name="Path 11624" d="M615.741,270.783a2.436,2.436,0,1,1-.714-1.746,2.375,2.375,0,0,1,.714,1.746" transform="translate(-408.497 -242.904)" fill="#892a8d"/>
        <path id="Path_11625" data-name="Path 11625" d="M685.717,235.477a7.432,7.432,0,0,0-2.439-1.691,9.156,9.156,0,0,0-3.54-.669,8.861,8.861,0,0,0-3.5.669,7.417,7.417,0,0,0-2.439,1.691,7.672,7.672,0,0,0-1.888,3.383,21.175,21.175,0,0,0,0,8.889,7.964,7.964,0,0,0,1.888,3.422,7.409,7.409,0,0,0,2.439,1.691,8.861,8.861,0,0,0,3.5.669,9.156,9.156,0,0,0,3.54-.669,7.424,7.424,0,0,0,2.439-1.691,7.976,7.976,0,0,0,1.887-3.422,21.151,21.151,0,0,0,0-8.889,7.684,7.684,0,0,0-1.887-3.383m-1.888,10.9a4.576,4.576,0,0,1-1.141,2.4,4,4,0,0,1-2.95,1.18,3.955,3.955,0,0,1-2.91-1.18,4.583,4.583,0,0,1-1.141-2.4,15.453,15.453,0,0,1-.236-3.068,16.1,16.1,0,0,1,.236-3.108,4.548,4.548,0,0,1,1.141-2.36,3.943,3.943,0,0,1,2.91-1.14,3.993,3.993,0,0,1,2.95,1.14,4.541,4.541,0,0,1,1.141,2.36,16.1,16.1,0,0,1,.236,3.108,15.453,15.453,0,0,1-.236,3.068" transform="translate(-442.804 -222.978)" fill="#892a8d"/>
        <path id="Path_11626" data-name="Path 11626" d="M744.33,234.926a6.814,6.814,0,0,0-4.917-1.809,6.93,6.93,0,0,0-5.31,2.242s-.36.369-.851.975a6,6,0,0,0-1.065-1.408,6.812,6.812,0,0,0-4.917-1.809,6.931,6.931,0,0,0-5.31,2.242v-2.006h-3.934V253.3h4.012V241.141q0-4.445,4.13-4.445,4.012,0,4.012,4.445V253.3h4.012v-12.6q.2-4,4.118-4,4.012,0,4.012,4.445V253.3h4.012V240.551a7.524,7.524,0,0,0-2.006-5.625" transform="translate(-469.173 -222.978)" fill="#892a8d"/>
        <path id="Path_11627" data-name="Path 11627" d="M626.751,243.3q0,5.349,2.6,7.945a8.612,8.612,0,0,0,6.372,2.282,10.519,10.519,0,0,0,4.288-.787,11.014,11.014,0,0,0,3.187-2.321l-2.557-2.4a6.613,6.613,0,0,1-4.838,2.045q-5.074,0-5.074-5.585v-2.321q0-5.585,5.074-5.586a6.614,6.614,0,0,1,4.838,2.046l2.557-2.4a11,11,0,0,0-3.187-2.32,10.5,10.5,0,0,0-4.288-.787,8.611,8.611,0,0,0-6.372,2.282q-2.6,2.6-2.6,7.945Z" transform="translate(-417.512 -222.977)" fill="#892a8d"/>
      </g>
    </g>
  </g>
</svg>
